<svg xmlns="http://www.w3.org/2000/svg" xmlns:xlink="http://www.w3.org/1999/xlink" width="500" zoomAndPan="magnify" viewBox="0 0 375 374.999991" height="500" preserveAspectRatio="xMidYMid meet" version="1.0"><path fill="#ffffff" d="M 91.824219 235.21875 C 84.234375 228.5 74.027344 225.367188 63.925781 226.609375 C 47.679688 228.601562 34.714844 241.863281 33.117188 258.140625 C 32.292969 266.425781 34.269531 274.429688 38.835938 281.296875 C 45.40625 291.238281 56.4375 297.160156 68.371094 297.160156 C 80.304688 297.160156 91.308594 291.222656 97.910156 281.296875 C 101.75 275.464844 103.773438 268.699219 103.773438 261.730469 C 103.773438 251.597656 99.417969 241.925781 91.824219 235.21875 Z M 88.164062 274.859375 C 83.730469 281.519531 76.332031 285.492188 68.359375 285.492188 C 60.382812 285.492188 52.953125 281.519531 48.550781 274.859375 C 45.496094 270.25 44.164062 264.859375 44.726562 259.292969 C 45.804688 248.394531 54.476562 239.53125 65.34375 238.203125 C 66.363281 238.070312 67.382812 238.011719 68.386719 238.011719 C 74.207031 238.011719 79.6875 240.078125 84.085938 243.960938 C 89.183594 248.46875 92.105469 254.949219 92.105469 261.746094 C 92.105469 266.410156 90.746094 270.960938 88.179688 274.859375 Z M 88.164062 274.859375 " fill-opacity="1" fill-rule="nonzero"/><path fill="#ffffff" d="M 365.171875 161.433594 L 335.886719 132.144531 C 330.566406 126.828125 322.445312 125.425781 315.679688 128.660156 L 299.050781 136.5625 C 296.730469 137.667969 293.925781 137.183594 292.109375 135.363281 L 236.519531 79.773438 C 234.703125 77.957031 234.214844 75.152344 235.324219 72.832031 L 243.222656 56.1875 C 246.445312 49.410156 245.039062 41.285156 239.722656 35.984375 L 210.4375 6.695312 C 203.714844 -0.0234375 192.003906 -0.0234375 185.285156 6.695312 L 180.574219 11.40625 C 168.316406 23.667969 161.566406 39.957031 161.566406 57.28125 C 161.566406 74.605469 168.316406 90.894531 180.574219 103.152344 L 186.804688 109.386719 L 74.222656 109.386719 C 71 109.386719 68.386719 112 68.386719 115.21875 L 68.386719 197.308594 C 65.9375 197.308594 63.46875 197.410156 61.003906 197.691406 C 30.445312 201.101562 6.503906 225.855469 4.097656 256.546875 C 2.8125 272.910156 7.6875 288.949219 17.804688 301.722656 C 34.460938 322.742188 46.261719 343.300781 53.972656 364.816406 C 55.507812 369.128906 58.859375 372.511719 63.21875 374.078125 C 64.902344 374.683594 66.613281 374.964844 68.3125 374.964844 C 74.605469 374.964844 80.542969 371.019531 82.832031 364.609375 C 90.394531 343.519531 102.519531 322.386719 118.882812 301.785156 C 128.011719 290.292969 132.839844 276.4375 132.839844 261.730469 C 132.839844 260.164062 132.707031 258.628906 132.589844 257.09375 L 262.957031 257.09375 C 266.175781 257.09375 268.789062 254.476562 268.789062 251.257812 L 268.789062 191.355469 C 281.03125 203.570312 297.292969 210.304688 314.601562 210.304688 C 331.914062 210.304688 348.230469 203.554688 360.476562 191.296875 L 365.1875 186.585938 C 372.128906 179.644531 372.128906 168.375 365.1875 161.433594 Z M 198.472656 121.054688 L 221.304688 143.886719 L 168.582031 190.039062 L 89.800781 121.054688 L 198.488281 121.054688 Z M 109.726562 294.515625 C 92.578125 316.125 79.820312 338.382812 71.738281 360.902344 C 71.074219 362.78125 68.976562 363.753906 67.132812 363.089844 C 66.128906 362.71875 65.316406 361.90625 64.871094 360.667969 C 56.792969 338.144531 44.386719 316.492188 26.929688 294.472656 C 18.644531 284.015625 14.65625 270.871094 15.707031 257.445312 C 17.683594 232.324219 37.269531 212.0625 62.273438 209.269531 C 64.339844 209.035156 66.394531 208.929688 68.417969 208.929688 C 81.429688 208.929688 93.714844 213.597656 103.523438 222.371094 C 114.71875 232.382812 121.128906 246.722656 121.128906 261.714844 C 121.128906 273.765625 117.183594 285.09375 109.695312 294.503906 Z M 257.105469 245.410156 L 130.640625 245.410156 C 127.449219 233.285156 120.847656 222.191406 111.335938 213.671875 C 102.472656 205.726562 91.617188 200.542969 80.054688 198.414062 L 80.054688 128.023438 L 164.742188 202.164062 C 165.847656 203.125 167.207031 203.613281 168.582031 203.613281 C 169.953125 203.613281 171.328125 203.125 172.421875 202.164062 L 229.578125 152.144531 L 257.105469 179.671875 Z M 356.917969 178.328125 L 352.203125 183.039062 C 342.160156 193.082031 328.796875 198.621094 314.574219 198.621094 C 300.351562 198.621094 287 193.082031 276.957031 183.039062 L 188.816406 94.898438 C 178.769531 84.855469 173.234375 71.488281 173.234375 57.28125 C 173.234375 43.074219 178.769531 29.707031 188.816406 19.664062 L 193.527344 14.953125 C 194.679688 13.800781 196.214844 13.164062 197.851562 13.164062 C 199.492188 13.164062 201.027344 13.800781 202.179688 14.953125 L 231.46875 44.238281 C 233.285156 46.054688 233.773438 48.863281 232.664062 51.179688 L 224.761719 67.824219 C 221.542969 74.605469 222.945312 82.726562 228.261719 88.03125 L 283.855469 143.621094 C 289.15625 148.921875 297.277344 150.328125 304.058594 147.121094 L 320.6875 139.21875 C 323.035156 138.113281 325.8125 138.597656 327.628906 140.417969 L 356.917969 169.703125 C 358.066406 170.855469 358.703125 172.390625 358.703125 174.03125 C 358.703125 175.671875 358.066406 177.207031 356.917969 178.359375 Z M 356.917969 178.328125 " fill-opacity="1" fill-rule="nonzero"/></svg>